<svg width="19" height="14" viewBox="0 0 19 14" fill="none" xmlns="http://www.w3.org/2000/svg">
<path d="M0.75 6.58333C0.75 6.58333 3.78 0.75 9.08333 0.75C14.3867 0.75 17.4167 6.58333 17.4167 6.58333C17.4167 6.58333 14.3867 12.4167 9.08333 12.4167C3.78 12.4167 0.75 6.58333 0.75 6.58333Z" stroke="#1A1A1A" stroke-width="1.5" stroke-linecap="round" stroke-linejoin="round"/>
<path d="M9.08337 9.08301C9.74642 9.08301 10.3823 8.81962 10.8511 8.35077C11.32 7.88193 11.5834 7.24605 11.5834 6.58301C11.5834 5.91997 11.32 5.28408 10.8511 4.81524C10.3823 4.3464 9.74642 4.08301 9.08337 4.08301C8.42033 4.08301 7.78445 4.3464 7.31561 4.81524C6.84677 5.28408 6.58337 5.91997 6.58337 6.58301C6.58337 7.24605 6.84677 7.88193 7.31561 8.35077C7.78445 8.81962 8.42033 9.08301 9.08337 9.08301V9.08301Z" stroke="#1A1A1A" stroke-width="1.5" stroke-linecap="round" stroke-linejoin="round"/>
</svg>
